<svg width="1512" height="8006" viewBox="0 0 1512 8006" fill="none" xmlns="http://www.w3.org/2000/svg">
<line y1="167.537" x2="1512" y2="167.537" stroke="#56493D" stroke-width="3"/>
<line y1="887.5" x2="1512" y2="887.5" stroke="#56493D" stroke-width="3"/>
<line y1="1213.13" x2="1512" y2="1213.13" stroke="#56493D" stroke-width="3"/>
<line x1="2" y1="1893.5" x2="1514" y2="1893.5" stroke="#56493D" stroke-width="3"/>
<line y1="53.463" x2="1512" y2="53.463" stroke="#56493D" stroke-width="3"/>
<line x1="133.5" x2="133.5" y2="1018.38" stroke="#56493D" stroke-width="3"/>
<line x1="133.5" y1="2841.48" x2="133.5" y2="5626.96" stroke="#56493D" stroke-width="3"/>
<line x1="133.248" y1="5626.96" x2="133.792" y2="6911" stroke="#56493D" stroke-width="3"/>
<line x1="133.5" y1="6773.56" x2="133.5" y2="8005.56" stroke="#56493D" stroke-width="3"/>
<line x1="1373.5" y1="6662" x2="1373.5" y2="7894" stroke="#56493D" stroke-width="3"/>
<line x1="1373.5" y1="2841.48" x2="1373.5" y2="5626.96" stroke="#56493D" stroke-width="3"/>
<line x1="133.5" y1="995" x2="133.5" y2="1964" stroke="#56493D" stroke-width="3"/>
<line x1="715.5" y1="889" x2="715.5" y2="1964" stroke="#56493D" stroke-width="3"/>
<line x1="1373.5" y1="890" x2="1373.5" y2="1964" stroke="#56493D" stroke-width="3"/>
<line x1="133.5" y1="1964" x2="133.5" y2="2841" stroke="#56493D" stroke-width="3"/>
<line x1="567.5" y1="2195" x2="567.5" y2="2841" stroke="#56493D" stroke-width="3"/>
<line x1="1373.5" y1="1964" x2="1373.5" y2="2841" stroke="#56493D" stroke-width="3"/>
<line y1="2193.5" x2="1512" y2="2193.5" stroke="#56493D" stroke-width="3"/>
<line y1="2506.5" x2="1512" y2="2506.5" stroke="#56493D" stroke-width="3"/>
<line y1="3052.57" x2="1512" y2="3052.57" stroke="#56493D" stroke-width="3"/>
<line y1="3687.24" x2="1512" y2="3687.24" stroke="#56493D" stroke-width="3"/>
<line y1="4289.76" x2="1512" y2="4289.76" stroke="#56493D" stroke-width="3"/>
<line y1="4898.5" x2="1512" y2="4898.5" stroke="#56493D" stroke-width="3"/>
<line y1="5533.17" x2="1512" y2="5533.17" stroke="#56493D" stroke-width="3"/>
<line y1="5809.02" x2="1512" y2="5809.02" stroke="#56493D" stroke-width="3"/>
<line y1="7892.5" x2="1512" y2="7892.5" stroke="#56493D" stroke-width="3"/>
<line y1="6660.5" x2="1512" y2="6660.5" stroke="#56493D" stroke-width="3"/>
<line y1="6772.5" x2="1512" y2="6772.5" stroke="#56493D" stroke-width="3"/>
</svg>
